<?xml version="1.0" encoding="UTF-8"?>
<svg version="1.1" xmlns="http://www.w3.org/2000/svg" width="300" height="300">
<path d="M0 0 C2.36590337 0.01605232 4.73180923 0.03174215 7.09771729 0.04708862 C12.04342597 0.08195259 16.98897808 0.12526398 21.93457031 0.17382812 C28.23267202 0.23442584 34.53058804 0.26776837 40.82891464 0.29388618 C45.71248792 0.31828433 50.59579228 0.36053001 55.47919464 0.40761948 C57.79927433 0.42730963 60.11941502 0.44089799 62.43956757 0.44794083 C90.45558429 0.55061459 112.58917102 6.76531079 133.453125 26.2421875 C139.42378784 32.41962654 144.11591973 39.31956323 147.765625 47.1171875 C148.43198975 48.52460205 148.43198975 48.52460205 149.11181641 49.96044922 C153.2464937 59.88161549 153.53679303 69.14971832 153.41748047 79.77587891 C153.39065832 82.61366225 153.41735691 85.44749205 153.44921875 88.28515625 C153.47054742 99.23070806 152.50634889 108.08995593 147.765625 118.1171875 C147.44658203 118.80377441 147.12753906 119.49036133 146.79882812 120.19775391 C136.82002433 139.85140943 118.43323057 153.23756389 98.01171875 160.44140625 C76.42112494 166.8166749 54.11214831 166.19143437 31.80859375 166.140625 C30.33671083 166.13873668 28.86482767 166.13702698 27.39294434 166.13549805 C23.85049941 166.1314409 20.30806386 166.12501113 16.765625 166.1171875 C16.77561775 167.28324272 16.77561775 167.28324272 16.78581238 168.47285461 C16.84622537 175.84219743 16.89175146 183.21141812 16.92106152 190.58094501 C16.93663729 194.36860638 16.95772508 198.15606106 16.99194336 201.94360352 C17.02482885 205.60705245 17.04253863 209.2703041 17.05025673 212.93388939 C17.05574842 214.32316373 17.06647041 215.71242876 17.08281517 217.10161781 C17.20197541 227.66096117 17.19854979 238.59084056 9.453125 246.6171875 C8.34517578 247.80828125 8.34517578 247.80828125 7.21484375 249.0234375 C-1.47690329 256.45370292 -11.93595919 255.29418016 -22.69799805 254.98510742 C-24.79545438 254.92972501 -26.89225946 254.90124217 -28.99023438 254.87304688 C-37.5518833 254.68302284 -42.69539709 253.95523096 -49.30859375 248.36328125 C-58.58337047 237.96565021 -58.77071622 226.71846123 -58.5 213.48046875 C-58.47990481 211.75932462 -58.46182057 210.03815599 -58.44561768 208.31697083 C-58.40931064 204.72350107 -58.36227598 201.13040269 -58.30737305 197.53717041 C-58.23088986 192.28824004 -58.20273167 187.0399552 -58.18945312 181.79052734 C-58.16891105 174.16890111 -58.12229267 166.54799749 -58.05040741 158.92667961 C-58.01042501 154.63591171 -57.97839295 150.34537783 -57.96337891 146.05444336 C-57.94818476 141.77521761 -57.913814 137.49653627 -57.86606598 133.21755409 C-57.85141836 131.62099219 -57.84334374 130.0243537 -57.84249115 128.42772484 C-57.8219865 109.4100312 -57.8219865 109.4100312 -51.41741943 102.0209198 C-38.9777213 89.78289486 -20.27047396 90.82724235 -4.09150124 90.81222725 C-0.8828759 90.80852624 2.32545054 90.79170142 5.53401184 90.77146912 C14.64786213 90.71639287 23.76175375 90.68534234 32.87573242 90.66088867 C38.47231693 90.64497579 44.06868391 90.61472949 49.66515541 90.57612419 C51.78729246 90.5645201 53.90946842 90.55854424 56.03163719 90.55844307 C59.0007327 90.55825004 61.96923029 90.53991536 64.93823242 90.51782227 C66.23597595 90.52468803 66.23597595 90.52468803 67.55993652 90.5316925 C76.34003916 90.4283407 83.48393459 88.39887791 89.765625 82.1171875 C91.56275106 79.6168382 91.80330312 78.63212181 91.578125 75.5546875 C90.69678168 72.91065755 89.95667311 71.80260913 87.765625 70.1171875 C84.04067925 68.87553892 80.56483981 68.94858227 76.68359375 68.92773438 C75.85845779 68.91944107 75.03332184 68.91114777 74.18318176 68.90260315 C72.38589404 68.8851867 70.58858342 68.87002426 68.79125977 68.85682678 C65.9187254 68.83568431 63.04629832 68.80865168 60.17382812 68.78015137 C54.0378036 68.72042175 47.90172394 68.66859555 41.765625 68.6171875 C-4.15323107 68.22659503 -4.15323107 68.22659503 -20.046875 67.7734375 C-21.08263672 67.75285278 -22.11839844 67.73226807 -23.18554688 67.71105957 C-34.38667565 67.32329168 -42.18002666 63.98848247 -50.234375 56.1171875 C-56.07782548 48.8128744 -58.90117317 39.94393064 -57.98828125 30.59765625 C-56.28375476 20.77777353 -51.98383848 12.5832886 -44.046875 6.41796875 C-31.08683139 -2.15975242 -14.87139135 -0.13494597 0 0 Z " fill="#76B542" transform="translate(101.234375,21.8828125)"/>
<path d="M0 0 C2.36590337 0.01605232 4.73180923 0.03174215 7.09771729 0.04708862 C12.04342597 0.08195259 16.98897808 0.12526398 21.93457031 0.17382812 C28.23267202 0.23442584 34.53058804 0.26776837 40.82891464 0.29388618 C45.71248792 0.31828433 50.59579228 0.36053001 55.47919464 0.40761948 C57.79927433 0.42730963 60.11941502 0.44089799 62.43956757 0.44794083 C90.45558429 0.55061459 112.58917102 6.76531079 133.453125 26.2421875 C139.42378784 32.41962654 144.11591973 39.31956323 147.765625 47.1171875 C148.43198975 48.52460205 148.43198975 48.52460205 149.11181641 49.96044922 C153.2464937 59.88161549 153.53679303 69.14971832 153.41748047 79.77587891 C153.39065832 82.61366225 153.41735691 85.44749205 153.44921875 88.28515625 C153.47054742 99.23070806 152.50634889 108.08995593 147.765625 118.1171875 C147.44658203 118.80377441 147.12753906 119.49036133 146.79882812 120.19775391 C138.84480746 135.86351759 125.63638967 147.21412784 110.265625 155.1171875 C109.65348145 155.43284668 109.04133789 155.74850586 108.41064453 156.07373047 C106.89302169 156.82082197 105.33149748 157.47736864 103.765625 158.1171875 C103.105625 157.7871875 102.445625 157.4571875 101.765625 157.1171875 C102.57 156.8490625 103.374375 156.5809375 104.203125 156.3046875 C105.04875 155.9128125 105.894375 155.5209375 106.765625 155.1171875 C107.095625 154.1271875 107.425625 153.1371875 107.765625 152.1171875 C109.65625 150.8359375 109.65625 150.8359375 112.015625 149.6171875 C112.82515625 149.18664062 113.6346875 148.75609375 114.46875 148.3125 C115.22671875 147.91804687 115.9846875 147.52359375 116.765625 147.1171875 C120.90624137 145.09411652 120.90624137 145.09411652 122.765625 141.1171875 C124.415625 140.7871875 126.065625 140.4571875 127.765625 140.1171875 C127.765625 139.4571875 127.765625 138.7971875 127.765625 138.1171875 C129.24859285 136.89785838 130.73393722 135.68113757 132.23828125 134.48828125 C134.28220369 132.65345573 135.44078351 130.50190219 136.765625 128.1171875 C137.425625 127.7871875 138.085625 127.4571875 138.765625 127.1171875 C139.054375 126.0240625 139.343125 124.9309375 139.640625 123.8046875 C140.85714093 119.81721861 141.91628506 118.96652744 144.765625 116.1171875 C147.92749449 110.74755651 149.23588137 105.66584762 149.58984375 99.4765625 C149.765625 97.1171875 149.765625 97.1171875 150.26611328 94.82885742 C151.18743523 89.82733107 150.95021535 84.75120069 150.953125 79.6796875 C150.96537109 78.56013672 150.97761719 77.44058594 150.99023438 76.28710938 C150.99993107 70.84079664 150.98150696 66.1938723 148.765625 61.1171875 C148.45625 60.1478125 148.146875 59.1784375 147.828125 58.1796875 C146.3525407 53.92653276 144.63515874 49.81049004 142.578125 45.8046875 C141.765625 44.1171875 141.765625 44.1171875 141.765625 42.1171875 C141.105625 42.1171875 140.445625 42.1171875 139.765625 42.1171875 C138.39805462 40.13579015 137.26217464 38.06246538 136.08203125 35.96484375 C134.81850544 33.80751291 134.81850544 33.80751291 131.765625 33.1171875 C131.435625 31.1371875 131.105625 29.1571875 130.765625 27.1171875 C130.105625 27.1171875 129.445625 27.1171875 128.765625 27.1171875 C128.765625 26.4571875 128.765625 25.7971875 128.765625 25.1171875 C126.43348352 23.91090742 124.26920361 22.9517137 121.765625 22.1171875 C122.095625 25.4171875 122.425625 28.7171875 122.765625 32.1171875 C123.755625 32.4471875 124.745625 32.7771875 125.765625 33.1171875 C125.765625 34.1071875 125.765625 35.0971875 125.765625 36.1171875 C126.425625 36.4471875 127.085625 36.7771875 127.765625 37.1171875 C127.765625 38.7671875 127.765625 40.4171875 127.765625 42.1171875 C127.105625 42.1171875 126.445625 42.1171875 125.765625 42.1171875 C125.77722656 42.91382813 125.78882813 43.71046875 125.80078125 44.53125 C125.84609575 49.85246714 125.8394658 54.88221361 124.765625 60.1171875 C124.765625 61.1071875 124.765625 62.0971875 124.765625 63.1171875 C124.146875 63.1584375 123.528125 63.1996875 122.890625 63.2421875 C122.189375 63.5309375 121.488125 63.8196875 120.765625 64.1171875 C120.4975 64.9628125 120.229375 65.8084375 119.953125 66.6796875 C117.39249484 74.09203797 111.22194814 79.0199055 104.765625 83.1171875 C103.775625 83.4471875 102.785625 83.7771875 101.765625 84.1171875 C101.29125 84.7771875 100.816875 85.4371875 100.328125 86.1171875 C98.765625 88.1171875 98.765625 88.1171875 96.828125 88.8671875 C93.16453463 89.31125906 89.4533531 89.1171875 85.765625 89.1171875 C86.69375 88.158125 86.69375 88.158125 87.640625 87.1796875 C90.30676837 83.33730441 91.65480708 79.82268697 91.765625 75.1171875 C89.75401226 71.54098708 88.65769427 70.41454392 84.765625 69.1171875 C82.06383049 69.00214849 79.38619965 68.94225127 76.68359375 68.92773438 C75.85845779 68.91944107 75.03332184 68.91114777 74.18318176 68.90260315 C72.38589404 68.8851867 70.58858342 68.87002426 68.79125977 68.85682678 C65.9187254 68.83568431 63.04629832 68.80865168 60.17382812 68.78015137 C54.0378036 68.72042175 47.90172394 68.66859555 41.765625 68.6171875 C-4.15323107 68.22659503 -4.15323107 68.22659503 -20.046875 67.7734375 C-21.08263672 67.75285278 -22.11839844 67.73226807 -23.18554688 67.71105957 C-34.38667565 67.32329168 -42.18002666 63.98848247 -50.234375 56.1171875 C-56.07782548 48.8128744 -58.90117317 39.94393064 -57.98828125 30.59765625 C-56.28375476 20.77777353 -51.98383848 12.5832886 -44.046875 6.41796875 C-31.08683139 -2.15975242 -14.87139135 -0.13494597 0 0 Z " fill="#75B542" transform="translate(101.234375,21.8828125)"/>
<path d="M0 0 C0.33 0.66 0.66 1.32 1 2 C4.3 2 7.6 2 11 2 C7.53175936 4.31216043 4.17727359 5.11117593 0.1875 6.0625 C-0.86147461 6.32256836 -0.86147461 6.32256836 -1.93164062 6.58789062 C-20.38028609 11.09219041 -40.07073564 10.07768656 -58.9765625 10.02734375 C-60.44702119 10.02514049 -61.9174802 10.02314588 -63.38793945 10.0213623 C-66.9253 10.01663124 -70.46264774 10.00913127 -74 10 C-73.99000725 11.16605522 -73.99000725 11.16605522 -73.97981262 12.35566711 C-73.91939963 19.72500993 -73.87387354 27.09423062 -73.84456348 34.46375751 C-73.82898771 38.25141888 -73.80789992 42.03887356 -73.77368164 45.82641602 C-73.74079615 49.48986495 -73.72308637 53.1531166 -73.71536827 56.81670189 C-73.70987658 58.20597623 -73.69915459 59.59524126 -73.68280983 60.98443031 C-73.56364959 71.54377367 -73.56707521 82.47365306 -81.3125 90.5 C-82.05113281 91.2940625 -82.78976563 92.088125 -83.55078125 92.90625 C-92.24252829 100.33651542 -102.70158419 99.17699266 -113.46362305 98.86791992 C-115.56107938 98.81253751 -117.65788446 98.78405467 -119.75585938 98.75585938 C-128.3175083 98.56583534 -133.46102209 97.83804346 -140.07421875 92.24609375 C-150.03063637 81.0842987 -149.521295 68.9390353 -149.25 54.8125 C-149.22989843 52.98374358 -149.21165415 51.15496576 -149.1953125 49.32617188 C-149.15161983 44.88357815 -149.08279646 40.44202996 -149 36 C-148.01 36 -147.02 36 -146 36 C-146 34.68 -146 33.36 -146 32 C-145.34 32 -144.68 32 -144 32 C-143.91363281 31.2575 -143.82726562 30.515 -143.73828125 29.75 C-142.37201303 24.66083159 -138.17523695 21.9381297 -134 19 C-130.09868942 17.01442249 -126.13115443 15.43837765 -122 14 C-121.09636719 13.66742188 -120.19273438 13.33484375 -119.26171875 12.9921875 C-109.80312764 10.11496338 -100.66899933 9.63549925 -90.8125 9.4375 C-88.17299464 9.37901477 -85.53384166 9.31356484 -82.89453125 9.24609375 C-81.73800049 9.22216553 -80.58146973 9.1982373 -79.38989258 9.17358398 C-76.02403446 9.06025181 -76.02403446 9.06025181 -72.82543945 8.50219727 C-67.51626328 7.80521754 -62.24803866 7.78432422 -56.8984375 7.71875 C-55.16649643 7.69113586 -55.16649643 7.69113586 -53.39956665 7.66296387 C-48.47870765 7.58460213 -43.55771962 7.51652965 -38.63671875 7.44775391 C-35.03639136 7.39595405 -31.43617767 7.33874765 -27.8359375 7.28125 C-26.72439301 7.26767456 -25.61284851 7.25409912 -24.46762085 7.2401123 C-23.42949249 7.22339478 -22.39136414 7.20667725 -21.32177734 7.18945312 C-19.95779312 7.17066101 -19.95779312 7.17066101 -18.56625366 7.15148926 C-15.93423064 6.99611755 -13.54413128 6.69791117 -11 6 C-10.566875 5.319375 -10.13375 4.63875 -9.6875 3.9375 C-8 2 -8 2 -6.0390625 1.73828125 C-4.02418008 1.74888589 -2.01059227 1.86815788 0 2 C0 1.34 0 0.68 0 0 Z " fill="#E0B022" transform="translate(192,178)"/>
<path d="M0 0 C10.91314713 1.61752087 21.00919033 8.76204347 29 16 C29.83144531 16.72703125 30.66289062 17.4540625 31.51953125 18.203125 C36.4311163 22.76011021 40.32234559 27.567171 43.8125 33.25 C44.16127197 33.80888916 44.51004395 34.36777832 44.86938477 34.94360352 C46.02238888 36.92257485 47.02258455 38.92812382 48 41 C48.44569336 41.93972656 48.89138672 42.87945312 49.35058594 43.84765625 C53.48303846 53.76554231 53.77112378 63.03647202 53.65185547 73.65869141 C53.62503332 76.49647475 53.65173191 79.33030455 53.68359375 82.16796875 C53.70492242 93.11352056 52.74072389 101.97276843 48 112 C47.68095703 112.68658691 47.36191406 113.37317383 47.03320312 114.08056641 C39.07918246 129.74633009 25.87076467 141.09694034 10.5 149 C9.88785645 149.31565918 9.27571289 149.63131836 8.64501953 149.95654297 C7.12739669 150.70363447 5.56587248 151.36018114 4 152 C3.34 151.67 2.68 151.34 2 151 C3.2065625 150.5978125 3.2065625 150.5978125 4.4375 150.1875 C5.7059375 149.5996875 5.7059375 149.5996875 7 149 C7.33 148.01 7.66 147.02 8 146 C9.890625 144.71875 9.890625 144.71875 12.25 143.5 C13.05953125 143.06945312 13.8690625 142.63890625 14.703125 142.1953125 C15.46109375 141.80085937 16.2190625 141.40640625 17 141 C21.14061637 138.97692902 21.14061637 138.97692902 23 135 C24.65 134.67 26.3 134.34 28 134 C28 133.34 28 132.68 28 132 C29.48296785 130.78067088 30.96831222 129.56395007 32.47265625 128.37109375 C34.51657869 126.53626823 35.67515851 124.38471469 37 122 C37.66 121.67 38.32 121.34 39 121 C39.433125 119.3603125 39.433125 119.3603125 39.875 117.6875 C41.09151593 113.70003111 42.15066006 112.84933994 45 110 C48.16186949 104.63036901 49.47025637 99.54866012 49.82421875 93.359375 C50 91 50 91 50.50048828 88.71166992 C51.42181023 83.71014357 51.18459035 78.63401319 51.1875 73.5625 C51.20586914 71.88317383 51.20586914 71.88317383 51.22460938 70.16992188 C51.23430607 64.72360914 51.21588196 60.0766848 49 55 C48.690625 54.030625 48.38125 53.06125 48.0625 52.0625 C46.5869157 47.80934526 44.86953374 43.69330254 42.8125 39.6875 C42 38 42 38 42 36 C41.34 36 40.68 36 40 36 C38.63242962 34.01860265 37.49654964 31.94527788 36.31640625 29.84765625 C35.05288044 27.69032541 35.05288044 27.69032541 32 27 C31.67 25.02 31.34 23.04 31 21 C30.34 21 29.68 21 29 21 C29 20.34 29 19.68 29 19 C26.66785852 17.79371992 24.50357861 16.8345262 22 16 C22 17.65 22 19.3 22 21 C18.40523299 17.50794062 15.07973809 13.95966325 12 10 C12 9.34 12 8.68 12 8 C10.9171875 7.8453125 10.9171875 7.8453125 9.8125 7.6875 C6.69946508 6.92653591 4.56994002 5.9090983 2 4 C2 3.01 2 2.02 2 1 C1.34 0.67 0.68 0.34 0 0 Z " fill="#C7DC90" transform="translate(201,28)"/>
<path d="M0 0 C0 0.33 0 0.66 0 1 C-7.59 1 -15.18 1 -23 1 C-23 1.66 -23 2.32 -23 3 C-23.6290625 3.21914063 -24.258125 3.43828125 -24.90625 3.6640625 C-30.85041893 5.86626966 -36.54630743 8.34862394 -41 13 C-41.15339844 13.639375 -41.30679688 14.27875 -41.46484375 14.9375 C-42.20088297 17.7742059 -43.94095853 18.95252618 -46 21 C-48.70973343 26.03123019 -50.62354142 31.03543681 -49.4375 36.75 C-48.26898344 40.63339334 -46.71787165 44.33000148 -45 48 C-44.01 48 -43.02 48 -42 48 C-42.33 49.32 -42.66 50.64 -43 52 C-42.01 52.33 -41.02 52.66 -40 53 C-39.5978125 53.928125 -39.5978125 53.928125 -39.1875 54.875 C-37.41324758 58.04997801 -35.35605446 58.73356436 -32 60 C-28.24926796 60.25144312 -28.24926796 60.25144312 -25 60 C-24.67 61.32 -24.34 62.64 -24 64 C-22.29408691 63.73981079 -22.29408691 63.73981079 -20.55371094 63.47436523 C-16.00990267 62.91206493 -11.69682146 63.10829859 -7.140625 63.41015625 C3.91031488 64.02179853 14.95110337 64.15247644 26.015625 64.24609375 C27.82938717 64.26274269 29.64314857 64.27947705 31.45690918 64.29629517 C38.97903167 64.36430042 46.50117631 64.42629608 54.0234375 64.47680664 C58.67838097 64.50849686 63.33315881 64.54968335 67.98796844 64.59700203 C69.75025255 64.61300729 71.51257404 64.62533568 73.27490997 64.63390923 C75.71502339 64.64599445 78.15473846 64.67009508 80.59472656 64.69702148 C81.68223709 64.6979052 81.68223709 64.6979052 82.79171753 64.69880676 C87.77203897 64.77203897 87.77203897 64.77203897 90 67 C78.8621551 67.0234425 67.72431632 67.04107425 56.58645153 67.05181217 C51.41154785 67.05697263 46.23666137 67.06394153 41.06176758 67.07543945 C1.52918121 67.16044658 1.52918121 67.16044658 -14.82421875 66.68359375 C-16.37675102 66.65024681 -16.37675102 66.65024681 -17.96064758 66.6162262 C-29.14990997 66.20136963 -36.95337371 62.86374842 -45 55 C-50.84345048 47.6956869 -53.66679817 38.82674314 -52.75390625 29.48046875 C-51.04937976 19.66058603 -46.74946348 11.4661011 -38.8125 5.30078125 C-27.02118261 -2.50340798 -13.46137967 -1.57377299 0 0 Z " fill="#DAEAC7" transform="translate(96,23)"/>
<path d="M0 0 C0.495 0.99 0.495 0.99 1 2 C4.3 2 7.6 2 11 2 C7.53175936 4.31216043 4.17727359 5.11117593 0.1875 6.0625 C-0.51181641 6.23587891 -1.21113281 6.40925781 -1.93164062 6.58789062 C-20.38028609 11.09219041 -40.07073564 10.07768656 -58.9765625 10.02734375 C-60.44702119 10.02514049 -61.9174802 10.02314588 -63.38793945 10.0213623 C-66.9253 10.01663124 -70.46264774 10.00913127 -74 10 C-73.99333817 10.77737015 -73.98667633 11.5547403 -73.97981262 12.35566711 C-73.91939963 19.72500993 -73.87387354 27.09423062 -73.84456348 34.46375751 C-73.82898771 38.25141888 -73.80789992 42.03887356 -73.77368164 45.82641602 C-73.74079615 49.48986495 -73.72308637 53.1531166 -73.71536827 56.81670189 C-73.70987658 58.20597623 -73.69915459 59.59524126 -73.68280983 60.98443031 C-73.45593275 81.08906413 -73.45593275 81.08906413 -79.6875 88.6875 C-80.450625 89.450625 -81.21375 90.21375 -82 91 C-83.33332095 88.3333581 -82.67102033 86.83319697 -82 84 C-81.34 84 -80.68 84 -80 84 C-78.24619291 78.63499518 -77.61265027 73.7664294 -77.41015625 68.140625 C-77.37334244 67.28140442 -77.33652863 66.42218384 -77.29859924 65.53692627 C-76.8444847 54.27959659 -76.6458716 43.01397353 -76.4375 31.75 C-76.39415719 29.52864041 -76.35053886 27.30728618 -76.30664062 25.0859375 C-76.20126409 19.72401568 -76.09923776 14.36203877 -76 9 C-69.63485248 7.88080339 -63.35078776 7.79784147 -56.8984375 7.71875 C-55.16649643 7.69113586 -55.16649643 7.69113586 -53.39956665 7.66296387 C-48.47870765 7.58460213 -43.55771962 7.51652965 -38.63671875 7.44775391 C-35.03639136 7.39595405 -31.43617767 7.33874765 -27.8359375 7.28125 C-26.72439301 7.26767456 -25.61284851 7.25409912 -24.46762085 7.2401123 C-23.42949249 7.22339478 -22.39136414 7.20667725 -21.32177734 7.18945312 C-19.95779312 7.17066101 -19.95779312 7.17066101 -18.56625366 7.15148926 C-15.93423064 6.99611755 -13.54413128 6.69791117 -11 6 C-10.566875 5.319375 -10.13375 4.63875 -9.6875 3.9375 C-8 2 -8 2 -6.0390625 1.73828125 C-4.02418008 1.74888589 -2.01059227 1.86815788 0 2 C0 1.34 0 0.68 0 0 Z " fill="#F2E9BE" transform="translate(192,178)"/>
<path d="M0 0 C1.39973314 0.01005602 2.79947331 0.01917721 4.19921875 0.02734375 C7.59122136 0.05073687 10.98313406 0.08660152 14.375 0.125 C14.375 7.715 14.375 15.305 14.375 23.125 C14.045 23.125 13.715 23.125 13.375 23.125 C13.045 16.525 12.715 9.925 12.375 3.125 C8.72206804 2.21176701 5.91755311 1.99091339 2.1875 2 C1.12144531 1.99742187 0.05539063 1.99484375 -1.04296875 1.9921875 C-3.55569348 1.83241028 -3.55569348 1.83241028 -4.625 3.125 C-7.08358124 3.45400722 -9.53411652 3.73889003 -12 4 C-17.96607499 4.68010862 -23.57235124 5.73851892 -29.33984375 7.4609375 C-32.07277396 8.25512235 -34.80638966 8.74410671 -37.625 9.125 C-37.625 10.775 -37.625 12.425 -37.625 14.125 C-38.285 14.125 -38.945 14.125 -39.625 14.125 C-39.625 13.135 -39.625 12.145 -39.625 11.125 C-40.79719543 11.90845715 -41.96263668 12.70202836 -43.125 13.5 C-44.09953125 14.16128906 -44.09953125 14.16128906 -45.09375 14.8359375 C-45.5990625 15.26132813 -46.104375 15.68671875 -46.625 16.125 C-46.625 16.785 -46.625 17.445 -46.625 18.125 C-47.40875 18.723125 -48.1925 19.32125 -49 19.9375 C-51.87159935 22.33049946 -52.53991442 23.6193389 -53.625 27.125 C-53.99625 28.218125 -54.3675 29.31125 -54.75 30.4375 C-55.03875 31.324375 -55.3275 32.21125 -55.625 33.125 C-55.955 33.125 -56.285 33.125 -56.625 33.125 C-56.295 29.495 -55.965 25.865 -55.625 22.125 C-54.965 22.125 -54.305 22.125 -53.625 22.125 C-53.49544922 21.01125 -53.49544922 21.01125 -53.36328125 19.875 C-51.99701303 14.78583159 -47.80023695 12.0631297 -43.625 9.125 C-39.72368942 7.13942249 -35.75615443 5.56337765 -31.625 4.125 C-30.72136719 3.79242188 -29.81773438 3.45984375 -28.88671875 3.1171875 C-19.24041319 0.18286221 -10.01697732 -0.12625441 0 0 Z " fill="#B8861F" transform="translate(101.625,187.875)"/>
<path d="M0 0 C4.22842451 1.81466268 5.05558668 3.85755423 7 8 C7.556875 8.556875 8.11375 9.11375 8.6875 9.6875 C9.120625 10.120625 9.55375 10.55375 10 11 C10 11.99 10 12.98 10 14 C10.99 14.33 11.98 14.66 13 15 C13.598125 15.45375 14.19625 15.9075 14.8125 16.375 C19.70914243 20.0125058 23.69394154 21.37897065 29.7890625 21.36328125 C31.69558594 21.36231445 31.69558594 21.36231445 33.640625 21.36132812 C35.61289063 21.3371582 35.61289063 21.3371582 37.625 21.3125 C38.9609398 21.31460665 40.29687833 21.31785175 41.6328125 21.32226562 C49.12846554 21.49754344 49.12846554 21.49754344 56 19 C59.47207917 17.90355395 62.35252927 17 66 17 C60.0321007 23.12919387 53.68976314 23.84037228 45.31323242 24.12548828 C41.97318762 24.11842028 38.64730405 24.06126635 35.31005859 23.94335938 C33.23918538 23.87464114 31.1693542 23.838882 29.09765625 23.8046875 C20.61252562 23.58742056 15.47981172 22.78801405 8.92578125 17.24609375 C4.25401945 12.00874335 1.98298888 6.7002854 0 0 Z " fill="#EDF16F" transform="translate(43,253)"/>
<path d="M0 0 C1 3 1 3 -0.16015625 5.828125 C-9.66602595 22.92697892 -23.59161624 37.65399897 -42.5 44.125 C-43.655 44.41375 -44.81 44.7025 -46 45 C-44.625 43.5 -44.625 43.5 -43 42 C-42.34 42 -41.68 42 -41 42 C-40.67 41.01 -40.34 40.02 -40 39 C-38.109375 37.71875 -38.109375 37.71875 -35.75 36.5 C-34.94046875 36.06945312 -34.1309375 35.63890625 -33.296875 35.1953125 C-32.15992188 34.60363281 -32.15992188 34.60363281 -31 34 C-26.85938363 31.97692902 -26.85938363 31.97692902 -25 28 C-23.35 27.67 -21.7 27.34 -20 27 C-20 26.34 -20 25.68 -20 25 C-18.5625114 23.7630912 -17.11962074 22.53166079 -15.64453125 21.33984375 C-8.59851431 15.59926462 -3.77997839 8.18995319 0 0 Z " fill="#D6E8B4" transform="translate(249,135)"/>
<path d="M0 0 C4.44403436 0.62402001 8.11274586 2.3477667 12.0625 4.375 C12.67416016 4.67921875 13.28582031 4.9834375 13.91601562 5.296875 C20.40552646 8.5802167 20.40552646 8.5802167 23 11 C23 11.99 23 12.98 23 14 C23.928125 14.4021875 23.928125 14.4021875 24.875 14.8125 C27 16 27 16 29 19 C28.401875 18.690625 27.80375 18.38125 27.1875 18.0625 C24.91043228 16.89790296 24.91043228 16.89790296 22 16 C22 17.65 22 19.3 22 21 C18.40523299 17.50794062 15.07973809 13.95966325 12 10 C12 9.34 12 8.68 12 8 C10.9171875 7.8453125 10.9171875 7.8453125 9.8125 7.6875 C6.69946508 6.92653591 4.56994002 5.9090983 2 4 C2 3.01 2 2.02 2 1 C1.34 0.67 0.68 0.34 0 0 Z " fill="#9ECA5E" transform="translate(201,28)"/>
<path d="M0 0 C0.495 0.99 0.495 0.99 1 2 C4.3 2 7.6 2 11 2 C7.53175936 4.31216043 4.17727359 5.11117593 0.1875 6.0625 C-0.51181641 6.23587891 -1.21113281 6.40925781 -1.93164062 6.58789062 C-7.86811805 8.03730186 -13.59105732 9.12767037 -19.72998047 9.11352539 C-20.83066864 9.11344986 -21.93135681 9.11337433 -23.06539917 9.11329651 C-24.82353439 9.10555458 -24.82353439 9.10555458 -26.6171875 9.09765625 C-27.82948029 9.0962413 -29.04177307 9.09482635 -30.290802 9.09336853 C-34.15222673 9.08778345 -38.01359288 9.07523361 -41.875 9.0625 C-44.49739499 9.05748308 -47.1197909 9.0529205 -49.7421875 9.04882812 C-56.16147822 9.03781889 -62.58073493 9.02109555 -69 9 C-69 8.67 -69 8.34 -69 8 C-68.34711502 7.98969254 -67.69423004 7.97938507 -67.02156067 7.96876526 C-60.22447988 7.86055961 -53.42752789 7.74597302 -46.63061523 7.62768555 C-44.09418432 7.58438182 -41.55772512 7.5427035 -39.02124023 7.50268555 C-35.37475051 7.44487273 -31.72840261 7.38120962 -28.08203125 7.31640625 C-26.38177544 7.29133751 -26.38177544 7.29133751 -24.64717102 7.26576233 C-23.05608772 7.2358445 -23.05608772 7.2358445 -21.43286133 7.20532227 C-20.50242508 7.18977798 -19.57198883 7.1742337 -18.61335754 7.15821838 C-15.96571562 6.99792435 -13.55910722 6.703061 -11 6 C-10.566875 5.319375 -10.13375 4.63875 -9.6875 3.9375 C-8 2 -8 2 -6.0390625 1.73828125 C-4.02418008 1.74888589 -2.01059227 1.86815788 0 2 C0 1.34 0 0.68 0 0 Z " fill="#BBD99C" transform="translate(192,178)"/>
<path d="M0 0 C0.93423645 3.01031744 1.04449911 3.86650268 0 7 C-0.11706233 9.00841665 -0.17675967 11.02035989 -0.20532227 13.03198242 C-0.22526749 14.27304245 -0.24521271 15.51410248 -0.26576233 16.79277039 C-0.28274527 18.1470019 -0.29962413 19.50123473 -0.31640625 20.85546875 C-0.33698228 22.24124259 -0.35797892 23.62701025 -0.37937927 25.01277161 C-0.43453301 28.65740953 -0.48397174 32.30210346 -0.53222656 35.94683838 C-0.58249056 39.6670835 -0.63815104 43.38724743 -0.69335938 47.10742188 C-0.80085899 54.40487913 -0.90232207 61.70240397 -1 69 C-0.34 69 0.32 69 1 69 C1.226875 68.05125 1.45375 67.1025 1.6875 66.125 C3 63 3 63 5.625 61.625 C6.40875 61.41875 7.1925 61.2125 8 61 C8 60.34 8 59.68 8 59 C9.32 59.33 10.64 59.66 12 60 C11.36191406 60.53109375 10.72382812 61.0621875 10.06640625 61.609375 C9.24011719 62.31578125 8.41382813 63.0221875 7.5625 63.75 C6.73878906 64.44609375 5.91507813 65.1421875 5.06640625 65.859375 C2.98703549 68.01343015 2.36132674 69.08310781 2 72 C1.34 72 0.68 72 0 72 C0 73.32 0 74.64 0 76 C-0.66 76 -1.32 76 -2 76 C-2 51.58 -2 27.16 -2 2 C-1.34 2 -0.68 2 0 2 C0 1.34 0 0.68 0 0 Z " fill="#44892F" transform="translate(46,138)"/>
<path d="M0 0 C1.32 0 2.64 0 4 0 C3.67 1.32 3.34 2.64 3 4 C3.99 4.33 4.98 4.66 6 5 C6.268125 5.61875 6.53625 6.2375 6.8125 6.875 C8.58675242 10.04997801 10.64394554 10.73356436 14 12 C17.75073204 12.25144312 17.75073204 12.25144312 21 12 C21.33 13.32 21.66 14.64 22 16 C23.0828125 15.82597656 24.165625 15.65195313 25.28125 15.47265625 C30.7148575 14.79345531 36.04799277 15.12626337 41.5 15.4375 C42.51320312 15.48970703 43.52640625 15.54191406 44.5703125 15.59570312 C47.04727608 15.72422482 49.52371337 15.85912766 52 16 C52 16.33 52 16.66 52 17 C47.01958936 17.09948577 42.03976748 17.17175686 37.05859375 17.21972656 C35.36708489 17.2397406 33.67564433 17.26696073 31.984375 17.30175781 C29.54149446 17.35073065 27.09953489 17.37307033 24.65625 17.390625 C23.53700134 17.42159271 23.53700134 17.42159271 22.3951416 17.45318604 C14.46841314 17.45651156 8.18654998 13.85228077 2.34375 8.66015625 C0.18533879 5.99351449 0.06670159 3.33507932 0 0 Z " fill="#C5DB8C" transform="translate(50,71)"/>
<path d="M0 0 C9.24043885 5.11880426 15.85440146 13.08797455 21.25 22 C21.64477539 22.64678711 22.03955078 23.29357422 22.44628906 23.95996094 C23.515625 25.8125 23.515625 25.8125 25 29 C24 32 24 32 22 33 C19 26.25 19 26.25 19 24 C18.34 24 17.68 24 17 24 C15.63242962 22.01860265 14.49654964 19.94527788 13.31640625 17.84765625 C12.05288044 15.69032541 12.05288044 15.69032541 9 15 C8.67 13.02 8.34 11.04 8 9 C7.34 9 6.68 9 6 9 C4.9935725 7.33720673 3.99414593 5.67016516 3 4 C2.01 3.34 1.02 2.68 0 2 C0 1.34 0 0.68 0 0 Z " fill="#CFE3A3" transform="translate(224,40)"/>
<path d="M0 0 C0.99 0.495 0.99 0.495 2 1 C-0.72762606 4.32165964 -2.16995913 5.86589253 -6.48652649 6.56330872 C-7.83939125 6.56008362 -9.19237242 6.52916102 -10.54418945 6.47583008 C-11.6571917 6.46229492 -11.6571917 6.46229492 -12.79267883 6.44848633 C-15.23397115 6.4128476 -17.67280995 6.34141406 -20.11328125 6.26953125 C-21.81003387 6.23775275 -23.50682986 6.20821766 -25.20365906 6.18083191 C-29.6611369 6.10287515 -34.11737336 5.99450745 -38.57403564 5.87976074 C-43.12517113 5.76797811 -47.67682224 5.68501244 -52.22851562 5.59960938 C-61.15308329 5.42791519 -70.07660483 5.22408402 -79 5 C-79 4.67 -79 4.34 -79 4 C-54.25 4 -29.5 4 -4 4 C-4 3.34 -4 2.68 -4 2 C-2.125 0.9375 -2.125 0.9375 0 0 Z " fill="#7BB156" transform="translate(183,110)"/>
<path d="M0 0 C3.11502457 1.52919388 4.83516323 2.37611351 7 5 C7.71024428 8.39811486 7.87413744 11.57115168 7.9296875 15.0390625 C7.85641298 18.05860043 7.85641298 18.05860043 9 21 C4.8803623 22.29243536 1.33168317 23.26252625 -3 23 C-2.21654285 21.82780457 -1.42297164 20.66236332 -0.625 19.5 C-0.18414062 18.8503125 0.25671875 18.200625 0.7109375 17.53125 C1.13632813 17.0259375 1.56171875 16.520625 2 16 C2.66 16 3.32 16 4 16 C4.62914287 10.3318463 4.62914287 10.3318463 2.88671875 5.06640625 C1.37805255 3.24328817 1.37805255 3.24328817 -1 1 C-0.67 0.67 -0.34 0.34 0 0 Z " fill="#5BA13A" transform="translate(190,88)"/>
<path d="M0 0 C1.17903511 3.69267246 0.59254087 6.01636049 -0.625 9.70703125 C-1.66787512 16.0837781 0.93858995 22.74649206 2.71484375 28.83398438 C4.10508242 33.78983516 4.10508242 33.78983516 3 36 C-2.13875649 28.80574092 -4.75399034 21.25532726 -3.68359375 12.375 C-2.86903175 8.06487664 -1.86360487 3.993439 0 0 Z " fill="#D6E8AB" transform="translate(47,40)"/>
<path d="M0 0 C4.7025 0.0309375 4.7025 0.0309375 9.5 0.0625 C9.5 7.6525 9.5 15.2425 9.5 23.0625 C9.17 23.0625 8.84 23.0625 8.5 23.0625 C8.005 13.1625 8.005 13.1625 7.5 3.0625 C3.84706804 2.14926701 1.04255311 1.92841339 -2.6875 1.9375 C-3.75355469 1.93492187 -4.81960937 1.93234375 -5.91796875 1.9296875 C-8.43069348 1.76991028 -8.43069348 1.76991028 -9.5 3.0625 C-11.18608966 3.13455511 -12.87500659 3.14636068 -14.5625 3.125 C-15.48160156 3.11597656 -16.40070313 3.10695312 -17.34765625 3.09765625 C-18.05792969 3.08605469 -18.76820312 3.07445312 -19.5 3.0625 C-19.17 2.4025 -18.84 1.7425 -18.5 1.0625 C-12.33794045 -0.06108655 -6.24654699 -0.05854842 0 0 Z " fill="#C68225" transform="translate(106.5,187.9375)"/>
<path d="M0 0 C0.33 0 0.66 0 1 0 C1.17553906 4.16612708 1.28127105 8.33129322 1.375 12.5 C1.42527344 13.67304688 1.47554688 14.84609375 1.52734375 16.0546875 C1.6466237 23.13196436 1.0861743 27.35663947 -3.70068359 32.72460938 C-4.12945801 33.14548828 -4.55823242 33.56636719 -5 34 C-6.33332095 31.3333581 -5.67102033 29.83319697 -5 27 C-4.34 27 -3.68 27 -3 27 C-1.02833006 21.15712444 -0.58723239 15.70397479 -0.375 9.5625 C-0.31699219 8.17901367 -0.31699219 8.17901367 -0.2578125 6.76757812 C-0.16431324 4.51190857 -0.0785609 2.25623084 0 0 Z " fill="#E2CC4A" transform="translate(115,235)"/>
<path d="M0 0 C0.66 1.32 1.32 2.64 2 4 C3.0828125 3.82597656 4.165625 3.65195313 5.28125 3.47265625 C10.7148575 2.79345531 16.04799277 3.12626337 21.5 3.4375 C23.01980469 3.51581055 23.01980469 3.51581055 24.5703125 3.59570312 C27.04727608 3.72422482 29.52371337 3.85912766 32 4 C32 4.33 32 4.66 32 5 C27.39186151 5.04957858 22.78387963 5.08580385 18.17553711 5.10986328 C16.60910333 5.11989726 15.04268817 5.13352754 13.47631836 5.15087891 C11.21984247 5.17524225 8.96361506 5.18650916 6.70703125 5.1953125 C6.01100296 5.20563507 5.31497467 5.21595764 4.59785461 5.22659302 C0.61415509 5.22750439 -2.41290109 4.7555827 -6 3 C-6 2.34 -6 1.68 -6 1 C-4.02 0.67 -2.04 0.34 0 0 Z " fill="#9EC261" transform="translate(70,83)"/>
<path d="M0 0 C4.42526424 0.62978144 8.11362995 2.31503339 12.0625 4.3125 C12.67416016 4.60833984 13.28582031 4.90417969 13.91601562 5.20898438 C17.5553124 7.03059995 20.30159433 8.95167638 23 12 C16.3568161 10.3705398 16.3568161 10.3705398 14.375 8.3125 C13.92125 7.879375 13.4675 7.44625 13 7 C11.8553125 7.2784375 11.8553125 7.2784375 10.6875 7.5625 C8 8 8 8 4.6875 6.25 C3.800625 5.5075 2.91375 4.765 2 4 C2 3.01 2 2.02 2 1 C1.34 0.67 0.68 0.34 0 0 Z " fill="#BFDD9C" transform="translate(201,28)"/>
<path d="M0 0 C0 0.33 0 0.66 0 1 C-1.175625 1.103125 -2.35125 1.20625 -3.5625 1.3125 C-7.75881602 1.82406503 -11.14544879 3.25454285 -15 5 C-19.34241801 6.22478457 -23.51934104 6.07594337 -28 6 C-21.53598585 -0.46401415 -8.57324136 -0.3283369 0 0 Z " fill="#A38821" transform="translate(96,188)"/>
<path d="M0 0 C-2.62023367 2.85143076 -4.62959739 4.83295569 -8.1875 6.4375 C-11.29121151 7.77454593 -11.29121151 7.77454593 -12.25 11.125 C-12.4975 12.07375 -12.745 13.0225 -13 14 C-13.99 14.495 -13.99 14.495 -15 15 C-14.1078009 8.88777033 -13.17793198 4.88344899 -8 1 C-2.63157895 -1.31578947 -2.63157895 -1.31578947 0 0 Z " fill="#479432" transform="translate(61,122)"/>
<path d="M0 0 C0.7265625 1.5703125 0.7265625 1.5703125 1 4 C-0.11155967 6.44072625 -1.245997 8.5960161 -2.625 10.875 C-2.96917969 11.47441406 -3.31335938 12.07382813 -3.66796875 12.69140625 C-6.09337842 16.81728765 -8.8565415 20.39329499 -12 24 C-12 21 -12 21 -11 18 C-10.34 18 -9.68 18 -9 18 C-8.7525 16.9275 -8.505 15.855 -8.25 14.75 C-6.94428127 10.83284382 -5.86461573 9.7778092 -3 7 C-1.82056376 4.71079885 -0.92682821 2.40975334 0 0 Z " fill="#B6D276" transform="translate(249,131)"/>
<path d="M0 0 C-1.65 1.65 -3.3 3.3 -5 5 C-5.66 4.67 -6.32 4.34 -7 4 C-9.33538294 4.66014548 -9.33538294 4.66014548 -11.875 5.75 C-12.73867188 6.09546875 -13.60234375 6.4409375 -14.4921875 6.796875 C-16.93479968 7.96872009 -18.89952401 9.3000799 -21 11 C-19.48214997 6.90180492 -16.64407934 4.26653726 -13 2 C-8.77798296 0.38885847 -4.51837933 -0.28239871 0 0 Z " fill="#73B261" transform="translate(69,117)"/>
<path d="M0 0 C0.33 0 0.66 0 1 0 C1.39325819 6.97669157 0.63096039 12.51656189 -2 19 C-2.33 19 -2.66 19 -3 19 C-3.2233411 12.0267945 -3.18031711 6.36063423 0 0 Z " fill="#CFE29E" transform="translate(253,116)"/>
<path d="M0 0 C1.32 0.33 2.64 0.66 4 1 C3.36191406 1.53109375 2.72382812 2.0621875 2.06640625 2.609375 C1.24011719 3.31578125 0.41382813 4.0221875 -0.4375 4.75 C-1.26121094 5.44609375 -2.08492187 6.1421875 -2.93359375 6.859375 C-5.01296451 9.01343015 -5.63867326 10.08310781 -6 13 C-6.66 13 -7.32 13 -8 13 C-8.33 14.32 -8.66 15.64 -9 17 C-9 14.69 -9 12.38 -9 10 C-8.34 10 -7.68 10 -7 10 C-6.6596875 8.576875 -6.6596875 8.576875 -6.3125 7.125 C-5 4 -5 4 -2.375 2.625 C-1.59125 2.41875 -0.8075 2.2125 0 2 C0 1.34 0 0.68 0 0 Z " fill="#538D18" transform="translate(54,197)"/>
<path d="M0 0 C0.66 0.33 1.32 0.66 2 1 C-3.31497919 7.75566952 -8.51507055 12.72355551 -17 15 C-13.1821153 10.80032683 -8.93364819 7.78061844 -4.20703125 4.6484375 C-1.77321644 3.02240715 -1.77321644 3.02240715 0 0 Z " fill="#519B26" transform="translate(217,92)"/>
<path d="M0 0 C-1 3 -1 3 -2.921875 4.828125 C-5.33867157 7.35394999 -6.1504762 9.45142859 -7.25 12.75 C-7.58515625 13.73484375 -7.9203125 14.7196875 -8.265625 15.734375 C-8.50796875 16.48203125 -8.7503125 17.2296875 -9 18 C-10.20248186 14.39255441 -9.73037518 12.6736113 -8.875 9 C-8.64554688 7.948125 -8.41609375 6.89625 -8.1796875 5.8125 C-6.61092238 2.07239773 -4.18738864 0 0 0 Z " fill="#B9D572" transform="translate(55,37)"/>
<path d="M0 0 C0.66 0.33 1.32 0.66 2 1 C0.35164212 3.23135604 -0.6912492 4.55198737 -3 6 C-6.48341248 6.48552153 -9.82396449 6.15519006 -13.3125 5.8125 C-14.24384766 5.74224609 -15.17519531 5.67199219 -16.13476562 5.59960938 C-18.42617646 5.423347 -20.71272844 5.22284605 -23 5 C-23 4.67 -23 4.34 -23 4 C-16.73 4 -10.46 4 -4 4 C-4 3.34 -4 2.68 -4 2 C-2.125 0.9375 -2.125 0.9375 0 0 Z " fill="#93C06A" transform="translate(183,110)"/>
<path d="M0 0 C6.05785022 3.36547234 10.65853612 7.48780333 12.6875 14.3125 C12.790625 14.869375 12.89375 15.42625 13 16 C11.68 15.67 10.36 15.34 9 15 C8.67 13.02 8.34 11.04 8 9 C7.34 9 6.68 9 6 9 C4.9935725 7.33720673 3.99414593 5.67016516 3 4 C2.01 3.34 1.02 2.68 0 2 C0 1.34 0 0.68 0 0 Z " fill="#C2DC8F" transform="translate(224,40)"/>
<path d="M0 0 C0.66 0.33 1.32 0.66 2 1 C0.625 2.5 0.625 2.5 -1 4 C-1.66 4 -2.32 4 -3 4 C-3.04125 4.7425 -3.0825 5.485 -3.125 6.25 C-4.34857383 10.09551776 -6.59346582 11.04305483 -10 13 C-10 8.41771462 -7.08388033 6.1816619 -4 3 C-1.625 1.0625 -1.625 1.0625 0 0 Z " fill="#D3E5A6" transform="translate(59,27)"/>
<path d="M0 0 C0.66 0.33 1.32 0.66 2 1 C-2.55608682 7.1147481 -7.02172089 10.0073388 -14 13 C-14 12.01 -14 11.02 -14 10 C-12.989375 9.46375 -11.97875 8.9275 -10.9375 8.375 C-6.85583696 6.05928097 -3.45686901 3.15216019 0 0 Z " fill="#89C551" transform="translate(217,95)"/>
<path d="M0 0 C0.66 0.33 1.32 0.66 2 1 C-2.30972626 5.09949571 -4.85310727 6.63118644 -11 7 C-11 6.01 -11 5.02 -11 4 C-10.37351562 3.87882812 -9.74703125 3.75765625 -9.1015625 3.6328125 C-8.28429687 3.46523438 -7.46703125 3.29765625 -6.625 3.125 C-5.81289062 2.96257812 -5.00078125 2.80015625 -4.1640625 2.6328125 C-1.81326077 2.13341068 -1.81326077 2.13341068 0 0 Z " fill="#F3F685" transform="translate(107,269)"/>
<path d="M0 0 C-0.54984772 3.87511727 -2.27555331 5.59576506 -5.0625 8.25 C-5.79597656 8.95640625 -6.52945313 9.6628125 -7.28515625 10.390625 C-7.85105469 10.92171875 -8.41695312 11.4528125 -9 12 C-9.66 11.67 -10.32 11.34 -11 11 C-10.401875 10.46375 -9.80375 9.9275 -9.1875 9.375 C-6.78895617 6.7708667 -5.54656286 4.16342402 -4 1 C-2 0 -2 0 0 0 Z " fill="#D2E6AA" transform="translate(237,155)"/>
<path d="M0 0 C-0.556875 0.268125 -1.11375 0.53625 -1.6875 0.8125 C-3.28055316 1.63055433 -4.84295455 2.51020933 -6.375 3.4375 C-9.18511136 5.11018533 -12.06238133 6.56534902 -15 8 C-15 7.01 -15 6.02 -15 5 C-10.04883206 0.32389694 -6.62849573 -0.15064763 0 0 Z " fill="#AFD06A" transform="translate(71,26)"/>
<path d="M0 0 C0.66 0 1.32 0 2 0 C0.58768539 3.35882075 -1.03368978 5.13329047 -3.9375 7.3125 C-4.97197266 8.11107422 -4.97197266 8.11107422 -6.02734375 8.92578125 C-6.67832031 9.28027344 -7.32929688 9.63476562 -8 10 C-8.99 9.67 -9.98 9.34 -11 9 C-10.195625 8.566875 -9.39125 8.13375 -8.5625 7.6875 C-5.72153646 6.19525998 -5.72153646 6.19525998 -5 3 C-3.35 2.67 -1.7 2.34 0 2 C0 1.34 0 0.68 0 0 Z " fill="#ACCC6F" transform="translate(229,160)"/>
<path d="M0 0 C2.97 0.495 2.97 0.495 6 1 C6.33 1.99 6.66 2.98 7 4 C8.175625 4.2165625 8.175625 4.2165625 9.375 4.4375 C12 5 12 5 14 6 C13.67 6.66 13.34 7.32 13 8 C8.05 6.02 8.05 6.02 3 4 C3 3.34 3 2.68 3 2 C2.01 1.67 1.02 1.34 0 1 C0 0.67 0 0.34 0 0 Z " fill="#A5CB6C" transform="translate(210,34)"/>
<path d="M0 0 C0.66 1.32 1.32 2.64 2 4 C3.65 4 5.3 4 7 4 C7 4.33 7 4.66 7 5 C2.07872966 5.16682272 -1.50343896 5.24828052 -6 3 C-6 2.34 -6 1.68 -6 1 C-4.02 0.67 -2.04 0.34 0 0 Z " fill="#B0CE78" transform="translate(70,83)"/>
<path d="M0 0 C0.33 0.99 0.66 1.98 1 3 C-0.21484375 5.04296875 -0.21484375 5.04296875 -1.9375 7.1875 C-2.50339844 7.90292969 -3.06929688 8.61835938 -3.65234375 9.35546875 C-4.09707031 9.89816406 -4.54179688 10.44085938 -5 11 C-6.33332095 8.3333581 -5.67102033 6.83319697 -5 4 C-4.34 4 -3.68 4 -3 4 C-3 3.34 -3 2.68 -3 2 C-2.01 2 -1.02 2 0 2 C0 1.34 0 0.68 0 0 Z " fill="#F3EE8E" transform="translate(115,258)"/>
<path d="M0 0 C2.76276177 0.52268466 5.3260876 1.10869587 8 2 C8 2.99 8 3.98 8 5 C9.65 5.33 11.3 5.66 13 6 C10 7 10 7 8.02734375 6.328125 C7.33769531 5.97234375 6.64804687 5.6165625 5.9375 5.25 C5.24527344 4.90453125 4.55304687 4.5590625 3.83984375 4.203125 C2 3 2 3 0 0 Z " fill="#D7E9B3" transform="translate(56,81)"/>
<path d="M0 0 C0.99 0.33 1.98 0.66 3 1 C2.38125 1.845625 1.7625 2.69125 1.125 3.5625 C-1.13047736 6.91372345 -2.06125645 10.08856854 -3 14 C-3.33 14 -3.66 14 -4 14 C-3.67 10.37 -3.34 6.74 -3 3 C-2.34 3 -1.68 3 -1 3 C-0.67 2.01 -0.34 1.02 0 0 Z " fill="#C99221" transform="translate(49,207)"/>
<path d="M0 0 C0.99 0 1.98 0 3 0 C2.62492618 2.71928517 2.15781339 3.84218661 0.1875 5.8125 C-2 7 -2 7 -4.25 6.6875 C-4.8275 6.460625 -5.405 6.23375 -6 6 C-4.625 4.5 -4.625 4.5 -3 3 C-2.34 3 -1.68 3 -1 3 C-0.67 2.01 -0.34 1.02 0 0 Z " fill="#E7E841" transform="translate(107,265)"/>
<path d="M0 0 C-1.65 1.65 -3.3 3.3 -5 5 C-5.99 4.67 -6.98 4.34 -8 4 C-8 3.01 -8 2.02 -8 1 C-2.25 -1.125 -2.25 -1.125 0 0 Z " fill="#39981D" transform="translate(61,122)"/>
<path d="M0 0 C1.953125 0.7109375 1.953125 0.7109375 4 2 C4.609375 4.1640625 4.609375 4.1640625 4.75 6.625 C4.80671875 7.44226563 4.8634375 8.25953125 4.921875 9.1015625 C4.94765625 9.72804688 4.9734375 10.35453125 5 11 C2.03947516 7.63576723 1.07710178 4.30840713 0 0 Z " fill="#F4EA93" transform="translate(43,253)"/>
<path d="M0 0 C2.04119788 1.61594832 4.04072937 3.2856382 6 5 C6 5.66 6 6.32 6 7 C5.34 7 4.68 7 4 7 C3.67 7.66 3.34 8.32 3 9 C3 7.68 3 6.36 3 5 C2.01 4.67 1.02 4.34 0 4 C0 2.68 0 1.36 0 0 Z " fill="#4A9A24" transform="translate(213,39)"/>
<path d="M0 0 C0.433125 0.598125 0.86625 1.19625 1.3125 1.8125 C2.77461239 3.70783087 4.27050227 5.3528593 6 7 C5.01 8.485 5.01 8.485 4 10 C1.2027092 7.93243723 0.97307727 6.85559629 0.3125 3.3125 C0.209375 2.219375 0.10625 1.12625 0 0 Z " fill="#E6E046" transform="translate(47,257)"/>
<path d="M0 0 C-0.020625 0.78375 -0.04125 1.5675 -0.0625 2.375 C-0.18684063 4.98114961 -0.18684063 4.98114961 1 7 C-0.32 7 -1.64 7 -3 7 C-3.33 5.35 -3.66 3.7 -4 2 C-1 0 -1 0 0 0 Z " fill="#49A027" transform="translate(198,101)"/>
<path d="M0 0 C2.97 0 5.94 0 9 0 C5.81237635 2.12508244 3.73487777 2.5020163 0 3 C0 2.01 0 1.02 0 0 Z " fill="#CDE3AF" transform="translate(194,180)"/>
</svg>
